<svg width="1540" height="1009" viewBox="0 0 1540 1009" fill="none" xmlns="http://www.w3.org/2000/svg">
<g clip-path="url(#clip0_214_780)">
<rect width="1540" height="1008.59" rx="16" fill="url(#paint0_linear_214_780)"/>
<path d="M770.44 1373.13C1173.83 1373.13 1500.84 1036.21 1500.84 620.604C1500.84 204.998 1173.83 -131.917 770.44 -131.917C367.051 -131.917 40.04 204.998 40.04 620.604C40.04 1036.21 367.051 1373.13 770.44 1373.13Z" stroke="black" stroke-opacity="0.18" stroke-width="2.61292" stroke-miterlimit="10" style="mix-blend-mode:soft-light"/>
<path d="M770.439 1344.04C1158.24 1344.04 1472.61 1020.15 1472.61 620.604C1472.61 221.059 1158.24 -102.836 770.439 -102.836C382.639 -102.836 68.2646 221.059 68.2646 620.604C68.2646 1020.15 382.639 1344.04 770.439 1344.04Z" stroke="black" stroke-opacity="0.18" stroke-width="2.61292" stroke-miterlimit="10" style="mix-blend-mode:soft-light"/>
<path d="M770.442 1314.96C1142.65 1314.96 1444.38 1004.08 1444.38 620.604C1444.38 237.125 1142.65 -73.7471 770.442 -73.7471C398.235 -73.7471 96.502 237.125 96.502 620.604C96.502 1004.08 398.235 1314.96 770.442 1314.96Z" stroke="black" stroke-opacity="0.18" stroke-width="2.61292" stroke-miterlimit="10" style="mix-blend-mode:soft-light"/>
<path d="M770.441 1285.87C1127.06 1285.87 1416.15 988.023 1416.15 620.604C1416.15 253.185 1127.06 -44.6665 770.441 -44.6665C413.823 -44.6665 124.727 253.185 124.727 620.604C124.727 988.023 413.823 1285.87 770.441 1285.87Z" stroke="black" stroke-opacity="0.18" stroke-width="2.61292" stroke-miterlimit="10" style="mix-blend-mode:soft-light"/>
<path d="M770.44 1256.79C1111.47 1256.79 1387.93 971.962 1387.93 620.604C1387.93 269.246 1111.47 -15.5859 770.44 -15.5859C429.41 -15.5859 152.951 269.246 152.951 620.604C152.951 971.962 429.41 1256.79 770.44 1256.79Z" stroke="black" stroke-opacity="0.18" stroke-width="2.61292" stroke-miterlimit="10" style="mix-blend-mode:soft-light"/>
<path d="M770.442 1227.71C1095.88 1227.71 1359.7 955.901 1359.7 620.604C1359.7 285.307 1095.88 13.4951 770.442 13.4951C445.001 13.4951 181.18 285.307 181.18 620.604C181.18 955.901 445.001 1227.71 770.442 1227.71Z" stroke="black" stroke-opacity="0.18" stroke-width="2.61292" stroke-miterlimit="10" style="mix-blend-mode:soft-light"/>
<path d="M770.44 1198.62C1080.29 1198.62 1331.47 939.836 1331.47 620.604C1331.47 301.373 1080.29 42.5845 770.44 42.5845C460.593 42.5845 209.412 301.373 209.412 620.604C209.412 939.836 460.593 1198.62 770.44 1198.62Z" stroke="black" stroke-opacity="0.18" stroke-width="2.61292" stroke-miterlimit="10" style="mix-blend-mode:soft-light"/>
<path d="M770.439 1169.54C1064.7 1169.54 1303.24 923.775 1303.24 620.604C1303.24 317.433 1064.7 71.665 770.439 71.665C476.181 71.665 237.637 317.433 237.637 620.604C237.637 923.775 476.181 1169.54 770.439 1169.54Z" stroke="black" stroke-opacity="0.18" stroke-width="2.61292" stroke-miterlimit="10" style="mix-blend-mode:soft-light"/>
<path d="M770.44 1140.46C1049.11 1140.46 1275.02 907.714 1275.02 620.604C1275.02 333.495 1049.11 100.746 770.44 100.746C491.77 100.746 265.863 333.495 265.863 620.604C265.863 907.714 491.77 1140.46 770.44 1140.46Z" stroke="black" stroke-opacity="0.18" stroke-width="2.61292" stroke-miterlimit="10" style="mix-blend-mode:soft-light"/>
<path d="M770.439 1111.38C1033.52 1111.38 1246.79 891.653 1246.79 620.604C1246.79 349.555 1033.52 129.827 770.439 129.827C507.357 129.827 294.088 349.555 294.088 620.604C294.088 891.653 507.357 1111.38 770.439 1111.38Z" stroke="black" stroke-opacity="0.18" stroke-width="2.61292" stroke-miterlimit="10" style="mix-blend-mode:soft-light"/>
<path d="M770.441 1082.29C1017.93 1082.29 1218.56 875.588 1218.56 620.604C1218.56 365.621 1017.93 158.916 770.441 158.916C522.953 158.916 322.324 365.621 322.324 620.604C322.324 875.588 522.953 1082.29 770.441 1082.29Z" stroke="black" stroke-opacity="0.18" stroke-width="2.61292" stroke-miterlimit="10" style="mix-blend-mode:soft-light"/>
<path d="M770.44 1053.21C1002.34 1053.21 1190.33 859.527 1190.33 620.604C1190.33 381.681 1002.34 187.996 770.44 187.996C538.54 187.996 350.549 381.681 350.549 620.604C350.549 859.527 538.54 1053.21 770.44 1053.21Z" stroke="black" stroke-opacity="0.18" stroke-width="2.61292" stroke-miterlimit="10" style="mix-blend-mode:soft-light"/>
<path d="M770.438 1024.13C986.749 1024.13 1162.1 843.466 1162.1 620.604C1162.1 397.742 986.749 217.077 770.438 217.077C554.128 217.077 378.773 397.742 378.773 620.604C378.773 843.466 554.128 1024.13 770.438 1024.13Z" stroke="black" stroke-opacity="0.18" stroke-width="2.61292" stroke-miterlimit="10" style="mix-blend-mode:soft-light"/>
<path d="M770.441 995.051C971.163 995.051 1133.88 827.405 1133.88 620.604C1133.88 413.803 971.163 246.158 770.441 246.158C569.719 246.158 407.002 413.803 407.002 620.604C407.002 827.405 569.719 995.051 770.441 995.051Z" stroke="black" stroke-opacity="0.18" stroke-width="2.61292" stroke-miterlimit="10" style="mix-blend-mode:soft-light"/>
<path d="M770.44 965.961C955.569 965.961 1105.65 811.34 1105.65 620.604C1105.65 429.869 955.569 275.247 770.44 275.247C585.312 275.247 435.235 429.869 435.235 620.604C435.235 811.34 585.312 965.961 770.44 965.961Z" stroke="black" stroke-opacity="0.18" stroke-width="2.61292" stroke-miterlimit="10" style="mix-blend-mode:soft-light"/>
<path d="M770.441 936.881C939.981 936.881 1077.42 795.279 1077.42 620.604C1077.42 445.93 939.981 304.328 770.441 304.328C600.901 304.328 463.462 445.93 463.462 620.604C463.462 795.279 600.901 936.881 770.441 936.881Z" stroke="black" stroke-opacity="0.18" stroke-width="2.61292" stroke-miterlimit="10" style="mix-blend-mode:soft-light"/>
<path d="M770.44 907.8C924.391 907.8 1049.19 779.218 1049.19 620.604C1049.19 461.99 924.391 333.409 770.44 333.409C616.489 333.409 491.687 461.99 491.687 620.604C491.687 779.218 616.489 907.8 770.44 907.8Z" stroke="black" stroke-opacity="0.18" stroke-width="2.61292" stroke-miterlimit="10" style="mix-blend-mode:soft-light"/>
<path d="M770.44 878.719C908.803 878.719 1020.97 763.157 1020.97 620.604C1020.97 478.051 908.803 362.489 770.44 362.489C632.078 362.489 519.913 478.051 519.913 620.604C519.913 763.157 632.078 878.719 770.44 878.719Z" stroke="black" stroke-opacity="0.18" stroke-width="2.61292" stroke-miterlimit="10" style="mix-blend-mode:soft-light"/>
<path d="M770.441 849.63C893.21 849.63 992.734 747.092 992.734 620.604C992.734 494.117 893.21 391.579 770.441 391.579C647.671 391.579 548.147 494.117 548.147 620.604C548.147 747.092 647.671 849.63 770.441 849.63Z" stroke="black" stroke-opacity="0.18" stroke-width="2.61292" stroke-miterlimit="10" style="mix-blend-mode:soft-light"/>
<path d="M770.438 820.549C877.619 820.549 964.506 731.031 964.506 620.605C964.506 510.178 877.619 420.66 770.438 420.66C663.258 420.66 576.371 510.178 576.371 620.605C576.371 731.031 663.258 820.549 770.438 820.549Z" stroke="black" stroke-opacity="0.18" stroke-width="2.61292" stroke-miterlimit="10" style="mix-blend-mode:soft-light"/>
<path d="M770.439 791.468C862.031 791.468 936.28 714.97 936.28 620.604C936.28 526.239 862.031 449.74 770.439 449.74C678.847 449.74 604.598 526.239 604.598 620.604C604.598 714.97 678.847 791.468 770.439 791.468Z" stroke="black" stroke-opacity="0.18" stroke-width="2.61292" stroke-miterlimit="10" style="mix-blend-mode:soft-light"/>
<path d="M770.438 762.387C846.441 762.387 908.053 698.909 908.053 620.604C908.053 542.299 846.441 478.821 770.438 478.821C694.435 478.821 632.822 542.299 632.822 620.604C632.822 698.909 694.435 762.387 770.438 762.387Z" stroke="black" stroke-opacity="0.18" stroke-width="2.61292" stroke-miterlimit="10" style="mix-blend-mode:soft-light"/>
<path d="M770.439 733.299C830.849 733.299 879.821 682.844 879.821 620.604C879.821 558.365 830.849 507.91 770.439 507.91C710.029 507.91 661.058 558.365 661.058 620.604C661.058 682.844 710.029 733.299 770.439 733.299Z" stroke="black" stroke-opacity="0.18" stroke-width="2.61292" stroke-miterlimit="10" style="mix-blend-mode:soft-light"/>
<path d="M770.44 704.218C815.261 704.218 851.595 666.783 851.595 620.605C851.595 574.426 815.261 536.991 770.44 536.991C725.619 536.991 689.284 574.426 689.284 620.605C689.284 666.783 725.619 704.218 770.44 704.218Z" stroke="black" stroke-opacity="0.18" stroke-width="2.61292" stroke-miterlimit="10" style="mix-blend-mode:soft-light"/>
</g>
<defs>
<linearGradient id="paint0_linear_214_780" x1="-52.36" y1="706.36" x2="1569.96" y2="4.4427" gradientUnits="userSpaceOnUse">
<stop stop-color="#99A6D5"/>
<stop offset="1" stop-color="#5B75FE"/>
</linearGradient>
<clipPath id="clip0_214_780">
<rect width="1540" height="1008.59" rx="16" fill="white"/>
</clipPath>
</defs>
</svg>
