<svg width="25" height="25" viewBox="0 0 25 25" fill="none" xmlns="http://www.w3.org/2000/svg">
<g clip-path="url(#clip0_26_7244)">
<path d="M24.2398 12.4335C24.2398 5.83263 18.9217 0.481842 12.3623 0.481842C5.80006 0.483327 0.481934 5.83263 0.481934 12.435C0.481934 18.399 4.82611 23.3429 10.5035 24.2397V15.8884H7.48962V12.435H10.5065V9.79969C10.5065 6.80509 12.2807 5.15116 14.9932 5.15116C16.2938 5.15116 17.6523 5.38425 17.6523 5.38425V8.32392H16.1542C14.6799 8.32392 14.2197 9.24591 14.2197 10.1916V12.4335H17.5127L16.9871 15.8869H14.2182V24.2382C19.8956 23.3415 24.2398 18.3975 24.2398 12.4335Z" fill="#059BE5"/>
</g>
<defs>
<clipPath id="clip0_26_7244">
<rect x="0.484375" y="0.483215" width="23.7549" height="23.7549" rx="11.8774" fill="white"/>
</clipPath>
</defs>
</svg>
