<svg width="25" height="25" viewBox="0 0 25 25" fill="none" xmlns="http://www.w3.org/2000/svg">
<g clip-path="url(#clip0_26_7240)">
<path fill-rule="evenodd" clip-rule="evenodd" d="M12.5439 0.483215C5.98166 0.483215 0.666504 5.79837 0.666504 12.3607C0.666504 17.6164 4.06642 22.0556 8.7877 23.6294C9.38157 23.7333 9.60428 23.377 9.60428 23.0652C9.60428 22.7831 9.58943 21.8478 9.58943 20.853C6.60522 21.4024 5.83319 20.1255 5.59564 19.4574C5.46202 19.1159 4.88299 18.0618 4.3782 17.7797C3.96249 17.557 3.36862 17.0077 4.36336 16.9929C5.2987 16.978 5.96681 17.854 6.18951 18.2103C7.25848 20.0068 8.96586 19.502 9.64882 19.1902C9.75274 18.4181 10.0645 17.8985 10.406 17.6016C7.76327 17.3046 5.00177 16.2802 5.00177 11.7371C5.00177 10.4454 5.46202 9.37645 6.21921 8.54503C6.10043 8.24809 5.68472 7.03065 6.33798 5.39751C6.33798 5.39751 7.33272 5.08572 9.60428 6.61494C10.5545 6.3477 11.5641 6.21408 12.5736 6.21408C13.5832 6.21408 14.5928 6.3477 15.543 6.61494C17.8146 5.07088 18.8093 5.39751 18.8093 5.39751C19.4625 7.03065 19.0468 8.24809 18.9281 8.54503C19.6853 9.37645 20.1455 10.4306 20.1455 11.7371C20.1455 16.2951 17.3692 17.3046 14.7264 17.6016C15.157 17.9727 15.5281 18.6854 15.5281 19.7989C15.5281 21.3875 15.5133 22.6643 15.5133 23.0652C15.5133 23.377 15.736 23.7481 16.3299 23.6294C18.6877 22.8333 20.7366 21.3179 22.1881 19.2964C23.6396 17.275 24.4207 14.8493 24.4214 12.3607C24.4214 5.79837 19.1062 0.483215 12.5439 0.483215Z" fill="black"/>
</g>
<defs>
<clipPath id="clip0_26_7240">
<rect x="0.666504" y="0.483215" width="23.7549" height="23.7549" rx="11.8774" fill="white"/>
</clipPath>
</defs>
</svg>
