<svg width="25" height="25" viewBox="0 0 25 25" fill="none" xmlns="http://www.w3.org/2000/svg">
<g clip-path="url(#clip0_26_7233)">
<path d="M24.3726 10.0343H23.4159V9.985H12.7264V14.7359H19.4388C18.4595 17.5015 15.8281 19.4868 12.7264 19.4868C8.79083 19.4868 5.60001 16.296 5.60001 12.3604C5.60001 8.42493 8.79083 5.23411 12.7264 5.23411C14.543 5.23411 16.1957 5.91943 17.4541 7.03885L20.8136 3.67938C18.6923 1.70241 15.8548 0.483215 12.7264 0.483215C6.16715 0.483215 0.849121 5.80125 0.849121 12.3604C0.849121 18.9197 6.16715 24.2377 12.7264 24.2377C19.2856 24.2377 24.6036 18.9197 24.6036 12.3604C24.6036 11.5641 24.5216 10.7867 24.3726 10.0343Z" fill="#FFC107"/>
<path d="M2.21777 6.83219L6.12004 9.69401C7.17592 7.07983 9.73309 5.23411 12.7256 5.23411C14.5422 5.23411 16.1949 5.91942 17.4533 7.03885L20.8128 3.67938C18.6915 1.70241 15.854 0.483215 12.7256 0.483215C8.16352 0.483215 4.20721 3.05879 2.21777 6.83219Z" fill="#FF3D00"/>
<path d="M12.7265 24.2381C15.7944 24.2381 18.582 23.064 20.6896 21.1548L17.0136 18.0441C15.7811 18.9815 14.275 19.4884 12.7265 19.4872C9.63727 19.4872 7.01418 17.5174 6.026 14.7684L2.15283 17.7525C4.11851 21.599 8.11045 24.2381 12.7265 24.2381Z" fill="#4CAF50"/>
<path d="M24.3728 10.0343H23.4161V9.98502H12.7266V14.7359H19.439C18.9705 16.0522 18.1268 17.2023 17.0119 18.0443L17.0137 18.0431L20.6897 21.1538C20.4295 21.3901 24.6038 18.2991 24.6038 12.3605C24.6038 11.5641 24.5218 10.7867 24.3728 10.0343Z" fill="#1976D2"/>
</g>
<defs>
<clipPath id="clip0_26_7233">
<rect x="0.849121" y="0.483215" width="23.7549" height="23.7549" rx="11.8774" fill="white"/>
</clipPath>
</defs>
</svg>
