<svg width="65" height="40" viewBox="0 0 428 355" fill="none" xmlns="http://www.w3.org/2000/svg">
<path d="M177.386 291.125C178.412 292.274 179.668 293.197 181.072 293.834C182.476 294.47 183.998 294.807 185.54 294.822H204.962C203.42 294.807 201.898 294.47 200.494 293.834C199.089 293.197 197.834 292.275 196.807 291.125L95.0098 179.854C70.0674 152.601 70.0447 108.246 94.9997 80.9696C107.45 67.4004 123.808 60.6171 140.166 60.6194H120.746C104.388 60.6194 88.0307 67.4004 75.5804 80.9696C50.6254 108.246 50.6476 152.602 75.5909 179.854L177.386 291.125Z" fill="#262352"/>
<path d="M204.953 20.9733C185.045 6.8232 162.54 0 140.207 0H120.785C143.119 0 165.624 6.8232 185.531 20.9733H204.953Z" fill="#262352"/>
<path d="M224.665 188.475L243.726 166.83H224.305L205.245 188.475C199.967 194.2 192.865 197.398 185.622 197.398H205.043C212.286 197.398 219.39 194.2 224.665 188.475Z" fill="#262352"/>
<path d="M204.928 354.689C222.018 354.689 239.107 347.602 252.113 333.393L288.865 293.219C299.548 281.46 299.548 262.33 288.735 250.428C283.342 244.737 276.428 241.893 269.51 241.893H250.089C257.006 241.893 263.92 244.737 269.314 250.428C280.127 262.33 280.127 281.46 269.443 293.219L232.691 333.393C219.685 347.601 202.595 354.689 185.506 354.689H204.928Z" fill="#262352"/>
<path d="M244.373 93.8292H224.951C232.352 93.8292 239.738 97.0462 245.178 103.39L294.23 164.456H313.652L264.6 103.39C259.16 97.0462 251.774 93.8292 244.373 93.8292Z" fill="#262352"/>
<path d="M185.521 89.8606H204.942C211.93 89.8606 218.918 86.9948 224.413 81.1109C237.132 67.8888 253.459 61.2935 269.76 61.2935H250.34C234.039 61.2935 217.712 67.887 204.992 81.1109C199.496 86.9948 192.507 89.8606 185.521 89.8606Z" fill="#262352"/>
<path d="M293.475 237.976H312.897C320.136 237.976 327.237 234.779 332.434 229.156L363.262 195.265H343.84L313.013 229.156C307.815 234.779 300.714 237.976 293.475 237.976Z" fill="#262352"/>
<path d="M334.71 38.9344C341.823 46.7914 347.992 55.4511 353.092 64.7375C358.911 78.6512 355.158 94.1909 344.6 102.594C339.999 106.306 334.269 108.34 328.355 108.361H347.776C353.69 108.34 359.421 106.306 364.021 102.594C374.581 94.1932 378.333 78.6535 372.513 64.7375C367.413 55.4514 361.244 46.7917 354.132 38.9344C330.923 13.2635 300.337 0.0948082 269.498 0.0948082H250.076C280.916 0.0948082 311.502 13.2635 334.71 38.9344Z" fill="#262352"/>
<path d="M408.578 165.001C408.578 181.687 396.162 195.265 380.898 195.265H400.319C415.584 195.265 427.999 181.686 427.999 165.001C427.999 148.316 415.584 134.746 400.319 134.746H380.898C396.162 134.746 408.578 148.312 408.578 165.001Z" fill="#262352"/>
<path d="M250.092 241.894C257.01 241.894 263.923 244.738 269.318 250.429C280.131 262.33 280.131 281.46 269.447 293.22L232.695 333.394C219.689 347.602 202.599 354.69 185.509 354.69C168.42 354.69 151.334 347.603 138.326 333.394L36.5267 222.123C14.2762 198.092 1.50053 164.641 1.51041 130.401C1.46998 102.833 9.24071 76.4286 23.9856 54.0567C47.2346 18.7768 83.7606 0 120.787 0C143.12 0 165.626 6.8232 185.533 20.9733C205.384 6.97122 227.798 0.0950931 250.079 0.0950931C280.919 0.0950931 311.506 13.2642 334.715 38.9346C341.827 46.7918 347.996 55.4515 353.096 64.7378C358.916 78.6515 355.162 94.1912 344.604 102.592C340.003 106.303 334.273 108.338 328.359 108.359C319.788 108.359 311.338 104.037 305.937 95.9195C303.016 90.5244 299.475 85.4885 295.384 80.914C282.799 67.8444 266.581 61.293 250.34 61.293C234.039 61.293 217.711 67.8888 204.992 81.1109C199.498 86.9948 192.509 89.8606 185.521 89.8606C178.393 89.8606 171.268 86.8823 165.854 80.9346C153.428 67.3887 137.086 60.6157 120.747 60.6157C104.389 60.6157 88.0308 67.3968 75.5804 80.9656C50.6253 108.243 50.6475 152.597 75.5909 179.85L177.389 291.121C178.415 292.271 179.671 293.193 181.075 293.83C182.479 294.467 184.001 294.803 185.544 294.818C187.071 294.808 188.579 294.475 189.969 293.842C191.359 293.21 192.599 292.291 193.609 291.146L230.752 250.543C236.245 244.744 243.171 241.894 250.092 241.894Z" fill="#7D73A8"/>
<path d="M380.899 134.745C396.163 134.745 408.579 148.312 408.579 165.001C408.579 181.69 396.163 195.265 380.899 195.265H343.841L313.013 229.156C307.815 234.779 300.714 237.976 293.475 237.976C289.545 237.837 285.693 236.844 282.187 235.067C278.681 233.29 275.604 230.771 273.172 227.686L224.302 166.83L205.242 188.475C199.964 194.2 192.862 197.398 185.619 197.398H146.431C131.167 197.398 118.743 183.829 118.743 167.144C118.743 150.46 131.167 136.876 146.431 136.876H174.119L204.957 103.184C205.306 102.763 205.677 102.361 206.068 101.978C208.504 99.4201 211.432 97.3799 214.676 95.9796C217.92 94.5793 221.415 93.8477 224.949 93.8287C232.35 93.8287 239.736 97.0461 245.176 103.39L294.228 164.455L312.302 143.888C317.506 138.084 324.672 134.781 332.018 134.745H380.899Z" fill="#7D73A8"/>
<g style="mix-blend-mode:multiply" opacity="0.4" filter="url(#filter0_f_219_13)">
<path d="M252.968 256.77C254.795 256.776 256.602 257.157 258.276 257.888C259.95 258.62 261.455 259.686 262.7 261.022C268.152 267.017 268.152 276.774 262.712 282.759L225.978 322.907C215.936 333.867 202.589 339.911 188.392 339.911C174.194 339.911 160.847 333.867 150.809 322.907L48.9826 211.613C29.2629 190.312 17.9522 160.712 17.9675 130.396C17.9226 105.95 24.8044 82.5508 37.8773 62.7262C57.6626 32.6987 89.7145 14.7719 123.617 14.7719C145.831 14.7719 167.134 22.3051 185.221 36.5471C186.116 37.2689 187.232 37.6631 188.382 37.6644C189.533 37.6658 190.65 37.274 191.547 36.5543C209.551 22.515 230.747 15.0867 252.836 15.0867C281.292 15.0908 307.965 27.265 327.957 49.3682C334.219 56.2861 339.662 63.9018 344.177 72.0644C346.744 78.6288 344.806 86.3728 339.497 90.594C337.156 92.4938 334.235 93.5354 331.218 93.5454C329.02 93.5293 326.859 92.9848 324.917 91.958C322.975 90.9312 321.309 89.4524 320.06 87.6467C316.672 81.4238 312.559 75.6228 307.807 70.3644C292.999 54.9768 273.595 46.502 253.165 46.502C232.735 46.502 213.332 54.9795 198.33 70.5815C197.077 71.9971 195.534 73.1286 193.807 73.8999C192.079 74.6712 190.206 75.0646 188.314 75.0535C186.421 75.0425 184.553 74.6273 182.834 73.8359C181.116 73.0444 179.587 71.895 178.35 70.4649C163.718 54.5188 144.28 45.7422 123.62 45.7422C102.961 45.7422 83.5221 54.5188 68.8819 70.4685C54.1865 86.5876 46.1553 107.837 46.162 130.432C46.1656 153.066 54.235 174.341 68.8819 190.344L170.812 301.757C175.521 306.863 181.764 309.672 188.392 309.672C195.099 309.672 201.395 306.802 206.104 301.616L243.163 261.106C244.411 259.749 245.927 258.664 247.614 257.918C249.301 257.172 251.123 256.781 252.968 256.77Z" fill="#262352"/>
</g>
<g style="mix-blend-mode:multiply" opacity="0.4" filter="url(#filter1_f_219_13)">
<path d="M383.788 149.577C391.565 149.577 397.9 156.499 397.9 165.004C397.9 173.509 391.566 180.426 383.788 180.426H343.339C342.611 180.433 341.892 180.592 341.229 180.894C340.566 181.195 339.974 181.632 339.491 182.176L306.303 218.669C305.059 220.061 303.538 221.177 301.837 221.948C300.135 222.719 298.292 223.127 296.424 223.145C294.451 223.054 292.521 222.537 290.768 221.631C289.014 220.724 287.477 219.45 286.263 217.895L231.551 149.768C231.087 149.157 230.491 148.658 229.808 148.309C229.125 147.96 228.371 147.768 227.604 147.75C226.836 147.731 226.075 147.885 225.375 148.2C224.675 148.516 224.056 148.984 223.562 149.572L198.444 178.092C197.177 179.5 195.626 180.626 193.894 181.397C192.162 182.167 190.287 182.565 188.39 182.564H149.315C141.533 182.564 135.202 175.642 135.202 167.134C135.202 158.626 141.533 151.714 149.315 151.714H180.383C181.109 151.708 181.825 151.549 182.486 151.25C183.147 150.95 183.737 150.516 184.22 149.975L217.555 113.541C217.776 113.279 218.004 113.025 218.215 112.812C219.501 111.449 221.061 110.373 222.792 109.656C224.524 108.939 226.388 108.596 228.261 108.65C230.135 108.704 231.976 109.154 233.663 109.97C235.35 110.786 236.845 111.95 238.049 113.384L292.757 181.521C293.222 182.131 293.819 182.628 294.502 182.977C295.186 183.325 295.939 183.516 296.707 183.535C297.474 183.554 298.236 183.401 298.936 183.086C299.637 182.772 300.257 182.305 300.752 181.719L324.937 154.206C326.189 152.781 327.725 151.634 329.447 150.836C331.169 150.039 333.039 149.609 334.936 149.575L383.788 149.577Z" fill="#262352"/>
</g>
<path d="M152.844 301.754C157.553 306.86 163.796 309.67 170.424 309.67H175.083C168.455 309.67 162.212 306.86 157.503 301.754L55.5739 190.341C40.9271 174.339 32.8578 153.063 32.8542 130.429C32.8474 107.834 40.8786 86.5848 55.5739 70.4661C70.214 54.516 89.653 45.7394 110.312 45.7394H105.655C84.9961 45.7394 65.5576 54.516 50.9175 70.4661C36.2222 86.5848 28.191 107.834 28.1978 130.429C28.2014 153.063 36.2707 174.339 50.9175 190.341L152.844 301.754Z" fill="url(#paint0_linear_219_13)"/>
<path d="M170.425 37.6651H175.084C173.931 37.6614 172.813 37.2675 171.913 36.5478C153.826 22.3057 132.524 14.7729 110.31 14.7729H105.651C127.865 14.7729 149.167 22.3057 167.254 36.5478C168.154 37.2675 169.272 37.6614 170.425 37.6651Z" fill="url(#paint1_linear_219_13)"/>
<path d="M175.083 75.0507C176.961 75.0397 178.815 74.6361 180.527 73.8659C182.239 73.0957 183.77 71.9759 185.021 70.5787C200.024 54.9758 219.429 46.4984 239.856 46.4984H235.197C214.769 46.4984 195.365 54.9758 180.362 70.5787C179.111 71.9759 177.579 73.0957 175.868 73.8659C174.156 74.6362 172.302 75.0398 170.424 75.0507H175.083Z" fill="url(#paint2_linear_219_13)"/>
<path d="M175.083 339.91C189.281 339.91 202.627 333.866 212.669 322.907L249.403 282.759C254.843 276.773 254.843 267.015 249.391 261.022C248.146 259.686 246.641 258.619 244.967 257.888C243.293 257.156 241.486 256.776 239.659 256.77H235.001C236.828 256.776 238.634 257.157 240.308 257.888C241.982 258.619 243.488 259.686 244.732 261.022C250.184 267.017 250.184 276.773 244.744 282.759L208.01 322.907C197.968 333.866 184.622 339.91 170.424 339.91H175.083Z" fill="url(#paint3_linear_219_13)"/>
<path d="M205.596 149.573L180.478 178.093C179.211 179.501 177.661 180.627 175.928 181.398C174.196 182.169 172.321 182.566 170.424 182.565H175.083C176.98 182.566 178.855 182.168 180.587 181.398C182.319 180.627 183.87 179.501 185.137 178.093L210.255 149.573C210.754 148.995 211.374 148.532 212.07 148.217C212.767 147.902 213.524 147.743 214.288 147.751H209.629C208.865 147.743 208.108 147.902 207.411 148.217C206.715 148.532 206.095 148.995 205.596 149.573Z" fill="url(#paint4_linear_219_13)"/>
<path d="M220.081 113.385L274.788 181.522C275.261 182.126 275.86 182.619 276.544 182.967C277.228 183.315 277.98 183.51 278.747 183.537H283.405C282.638 183.51 281.887 183.315 281.203 182.967C280.519 182.619 279.92 182.126 279.447 181.522L224.74 113.385C223.488 111.903 221.928 110.712 220.168 109.893C218.409 109.074 216.491 108.649 214.55 108.646H209.891C211.832 108.649 213.75 109.074 215.51 109.893C217.27 110.712 218.83 111.903 220.081 113.385Z" fill="url(#paint5_linear_219_13)"/>
<path d="M330.03 180.425H325.371C324.643 180.432 323.924 180.592 323.261 180.893C322.598 181.194 322.006 181.631 321.522 182.175L288.335 218.669C287.091 220.06 285.569 221.177 283.868 221.947C282.167 222.718 280.323 223.126 278.456 223.144H283.115C284.983 223.126 286.826 222.718 288.527 221.947C290.228 221.177 291.75 220.06 292.994 218.669L326.181 182.175C326.665 181.631 327.257 181.194 327.92 180.893C328.583 180.591 329.301 180.432 330.03 180.425Z" fill="url(#paint6_linear_219_13)"/>
<path d="M309.989 49.3692C316.251 56.2872 321.693 63.9028 326.208 72.0653C328.776 78.6297 326.837 86.3737 321.529 90.5949C319.188 92.4947 316.266 93.5363 313.25 93.5463H317.908C320.925 93.5365 323.847 92.4949 326.188 90.5949C331.495 86.3755 333.435 78.6297 330.867 72.0653C326.352 63.9026 320.91 56.287 314.648 49.3692C294.656 27.266 267.983 15.0917 239.527 15.0877H234.868C263.322 15.0917 289.997 27.266 309.989 49.3692Z" fill="url(#paint7_linear_219_13)"/>
<path d="M379.934 165.004C379.934 173.511 373.6 180.426 365.822 180.426H370.481C378.258 180.426 384.592 173.511 384.592 165.004C384.592 156.497 378.259 149.576 370.481 149.576H365.822C373.598 149.576 379.934 156.499 379.934 165.004Z" fill="url(#paint8_linear_219_13)"/>
<path d="M235 256.77C236.827 256.776 238.633 257.157 240.307 257.888C241.981 258.62 243.486 259.686 244.731 261.022C250.183 267.017 250.183 276.774 244.743 282.759L208.009 322.907C197.967 333.867 184.62 339.911 170.423 339.911C156.226 339.911 142.879 333.867 132.841 322.907L31.0151 211.613C11.2956 190.312 -0.0150541 160.712 0.000218501 130.396C-0.0447008 105.95 6.83704 82.5508 19.9099 62.7262C39.695 32.6987 71.7468 14.7719 105.649 14.7719C127.863 14.7719 149.165 22.3051 167.252 36.5471C168.148 37.2689 169.263 37.6631 170.414 37.6645C171.565 37.6658 172.681 37.274 173.578 36.5543C191.582 22.515 212.778 15.0867 234.867 15.0867C263.323 15.0908 289.996 27.265 309.988 49.3682C316.25 56.2861 321.692 63.9018 326.208 72.0644C328.775 78.6288 326.836 86.3728 321.528 90.594C319.187 92.4938 316.265 93.5354 313.249 93.5454C311.051 93.5293 308.89 92.9848 306.948 91.958C305.005 90.9312 303.34 89.4524 302.091 87.6467C298.703 81.4238 294.59 75.6228 289.838 70.3644C275.03 54.9768 255.626 46.502 235.196 46.502C214.765 46.502 195.364 54.9795 180.362 70.5815C179.108 71.9971 177.565 73.1286 175.838 73.8999C174.11 74.6713 172.238 75.0646 170.345 75.0535C168.453 75.0425 166.584 74.6273 164.866 73.8359C163.147 73.0444 161.618 71.895 160.381 70.4649C145.75 54.5188 126.311 45.7422 105.652 45.7422C84.9929 45.7422 65.5539 54.5188 50.9139 70.4685C36.2185 86.5876 28.1878 107.837 28.1945 130.432C28.1981 153.066 36.267 174.341 50.9139 190.344L152.843 301.757C157.552 306.863 163.795 309.672 170.423 309.672C177.131 309.672 183.427 306.802 188.136 301.616L225.194 261.106C226.442 259.749 227.958 258.664 229.645 257.918C231.332 257.172 233.155 256.781 235 256.77Z" fill="#DCFDFF"/>
<path d="M365.818 149.577C373.596 149.577 379.931 156.499 379.931 165.004C379.931 173.509 373.597 180.426 365.818 180.426H325.37C324.641 180.433 323.923 180.592 323.26 180.894C322.597 181.195 322.005 181.632 321.522 182.176L288.334 218.669C287.09 220.061 285.569 221.177 283.868 221.948C282.166 222.719 280.323 223.127 278.455 223.145C276.482 223.054 274.552 222.537 272.799 221.631C271.045 220.724 269.508 219.45 268.294 217.895L213.582 149.768C213.118 149.157 212.522 148.658 211.839 148.309C211.156 147.96 210.403 147.768 209.635 147.75C208.868 147.731 208.106 147.885 207.406 148.2C206.707 148.516 206.087 148.984 205.594 149.572L180.476 178.092C179.208 179.5 177.658 180.626 175.925 181.397C174.193 182.167 172.318 182.565 170.422 182.564H131.348C123.567 182.564 117.235 175.642 117.235 167.134C117.235 158.626 123.569 151.714 131.348 151.714H162.417C163.142 151.708 163.858 151.549 164.519 151.25C165.18 150.95 165.77 150.516 166.253 149.975L199.588 113.541C199.809 113.279 200.037 113.025 200.248 112.812C201.534 111.449 203.094 110.373 204.825 109.656C206.557 108.939 208.421 108.596 210.294 108.65C212.168 108.704 214.009 109.154 215.696 109.97C217.383 110.786 218.878 111.95 220.082 113.384L274.789 181.521C275.255 182.131 275.851 182.628 276.535 182.977C277.219 183.325 277.972 183.516 278.739 183.535C279.507 183.554 280.269 183.401 280.969 183.086C281.669 182.772 282.29 182.305 282.785 181.719L306.97 154.206C308.222 152.781 309.758 151.634 311.48 150.836C313.202 150.039 315.071 149.609 316.969 149.575L365.818 149.577Z" fill="#DCFDFF"/>
<defs>
<filter id="filter0_f_219_13" x="4.42074" y="1.2253" width="354.428" height="352.232" filterUnits="userSpaceOnUse" color-interpolation-filters="sRGB">
<feFlood flood-opacity="0" result="BackgroundImageFix"/>
<feBlend mode="normal" in="SourceGraphic" in2="BackgroundImageFix" result="shape"/>
<feGaussianBlur stdDeviation="6.77327" result="effect1_foregroundBlur_219_13"/>
</filter>
<filter id="filter1_f_219_13" x="121.655" y="95.0981" width="289.791" height="141.594" filterUnits="userSpaceOnUse" color-interpolation-filters="sRGB">
<feFlood flood-opacity="0" result="BackgroundImageFix"/>
<feBlend mode="normal" in="SourceGraphic" in2="BackgroundImageFix" result="shape"/>
<feGaussianBlur stdDeviation="6.77327" result="effect1_foregroundBlur_219_13"/>
</filter>
<linearGradient id="paint0_linear_219_13" x1="206.395" y1="14.7729" x2="206.395" y2="339.91" gradientUnits="userSpaceOnUse">
<stop stop-color="#F7A175"/>
<stop offset="1" stop-color="#FFF2DC"/>
</linearGradient>
<linearGradient id="paint1_linear_219_13" x1="206.395" y1="14.7729" x2="206.395" y2="339.91" gradientUnits="userSpaceOnUse">
<stop stop-color="#F7A175"/>
<stop offset="1" stop-color="#FFF2DC"/>
</linearGradient>
<linearGradient id="paint2_linear_219_13" x1="206.395" y1="14.7729" x2="206.395" y2="339.91" gradientUnits="userSpaceOnUse">
<stop stop-color="#F7A175"/>
<stop offset="1" stop-color="#FFF2DC"/>
</linearGradient>
<linearGradient id="paint3_linear_219_13" x1="206.395" y1="14.7729" x2="206.395" y2="339.91" gradientUnits="userSpaceOnUse">
<stop stop-color="#F7A175"/>
<stop offset="1" stop-color="#FFF2DC"/>
</linearGradient>
<linearGradient id="paint4_linear_219_13" x1="206.395" y1="14.7729" x2="206.395" y2="339.91" gradientUnits="userSpaceOnUse">
<stop stop-color="#F7A175"/>
<stop offset="1" stop-color="#FFF2DC"/>
</linearGradient>
<linearGradient id="paint5_linear_219_13" x1="206.395" y1="14.7729" x2="206.395" y2="339.91" gradientUnits="userSpaceOnUse">
<stop stop-color="#F7A175"/>
<stop offset="1" stop-color="#FFF2DC"/>
</linearGradient>
<linearGradient id="paint6_linear_219_13" x1="206.395" y1="14.7729" x2="206.395" y2="339.91" gradientUnits="userSpaceOnUse">
<stop stop-color="#F7A175"/>
<stop offset="1" stop-color="#FFF2DC"/>
</linearGradient>
<linearGradient id="paint7_linear_219_13" x1="206.395" y1="14.7729" x2="206.395" y2="339.91" gradientUnits="userSpaceOnUse">
<stop stop-color="#F7A175"/>
<stop offset="1" stop-color="#FFF2DC"/>
</linearGradient>
<linearGradient id="paint8_linear_219_13" x1="206.395" y1="14.7729" x2="206.395" y2="339.91" gradientUnits="userSpaceOnUse">
<stop stop-color="#F7A175"/>
<stop offset="1" stop-color="#FFF2DC"/>
</linearGradient>
</defs>
</svg>
